<?xml version="1.0" encoding="iso-8859-1"?>
<!-- Generator: Adobe Illustrator 19.0.0, SVG Export Plug-In . SVG Version: 6.00 Build 0)  -->
<svg version="1.1" id="Capa_1" xmlns="http://www.w3.org/2000/svg" xmlns:xlink="http://www.w3.org/1999/xlink" x="0px" y="0px"
	 viewBox="0 0 512.001 512.001" style="enable-background:new 0 0 512.001 512.001;" xml:space="preserve">
<g>
	<g>
		<path d="M88.192,378.556c-12.847,0-23.3,10.452-23.3,23.301c0,12.847,10.452,23.3,23.299,23.3c12.848,0,23.301-10.452,23.301-23.3
			C111.492,389.008,101.04,378.556,88.192,378.556z M88.192,410.155c-4.576,0-8.299-3.723-8.299-8.299s3.723-8.3,8.299-8.3
			c4.576,0,8.3,3.724,8.3,8.3S92.768,410.155,88.192,410.155z"/>
	</g>
</g>
<g>
	<g>
		<path d="M459.86,365.757c-12.848,0-23.301,10.452-23.301,23.3c0,12.848,10.452,23.301,23.301,23.301
			c12.847,0,23.3-10.452,23.3-23.301C483.16,376.209,472.708,365.757,459.86,365.757z M459.861,397.356c-4.576,0-8.3-3.724-8.3-8.3
			c0-4.576,3.724-8.299,8.3-8.299s8.299,3.723,8.299,8.299C468.16,393.632,464.437,397.356,459.861,397.356z"/>
	</g>
</g>
<g>
	<g>
		<path d="M442.254,344.162c-105.141,42.444-218.07,47.384-323.255,17.031v-52.386h5.758c16.102,0,29.202-13.1,29.202-29.202
			v-28.484c0-4.143-3.357-7.5-7.5-7.5c-4.143,0-7.5,3.357-7.5,7.5v28.485c0,7.83-6.371,14.201-14.201,14.201h-5.758V64.521
			c12.977,23.329,19.959,49.838,19.959,76.661v74.94c0,4.143,3.357,7.5,7.5,7.5c4.143,0,7.5-3.357,7.5-7.5v-74.94
			c0-38.276-12.98-75.969-36.55-106.135C108.12,23.159,97.297,12.531,85.24,3.459C73.967-5.028,57.386,3.093,57.386,17.062v58.073
			c0,4.143,3.357,7.5,7.5,7.5c4.143,0,7.5-3.357,7.5-7.5V17.062c0-1.642,2.486-2.634,3.835-1.617
			c10.325,7.77,19.66,16.79,27.778,26.837c0,13.967,0,293.163,0,314.329c-10.312-3.328-20.882-7.105-31.613-11.37V110.137
			c0-4.143-3.357-7.5-7.5-7.5c-4.143,0-7.5,3.357-7.5,7.5v230.87c-36.511-4.4-64.834,32.449-50.235,66.813
			c5.043,11.871,14.407,21.068,26.368,25.897c7.914,3.195,15.871,6.204,23.867,9.049v38.261c0,17.079,13.895,30.975,30.974,30.975
			c16.895,0,30.641-13.745,30.641-30.641v-20.317c44.848,10.71,90.658,16.122,136.964,16.122c38.578,0,77.286-3.811,115.047-11.325
			c4.063-0.809,6.7-4.757,5.892-8.819c-0.809-4.061-4.752-6.703-8.819-5.892c-107.629,21.419-221.465,12.066-328.948-31.323
			c-8.245-3.328-14.7-9.667-18.176-17.851c-11.549-27.18,15.715-54.946,43.095-43.882c22.679,9.152,37.456,13.388,45.286,15.914
			c47.721,14.347,96.854,21.605,146.622,21.605c65.669,0,130.235-12.623,191.909-37.52c8.242-3.332,17.289-3.25,25.474,0.228
			c27.062,11.497,27.003,50.382-0.555,61.505c-23.17,9.353-47.064,17.279-71.021,23.561c-4.007,1.051-6.403,5.15-5.353,9.157
			c1.051,4.006,5.15,6.401,9.157,5.353c24.569-6.441,49.072-14.569,72.831-24.16c11.96-4.828,21.324-14.024,26.368-25.897
			C521.724,367.918,481.65,328.249,442.254,344.162z M72.384,447.886c10.476,3.421,21.016,6.543,31.613,9.368v24.107h0.001
			c0,8.624-7.016,15.64-15.64,15.64c-8.808,0-15.973-7.166-15.973-15.974V447.886z"/>
	</g>
</g>
<g>
</g>
<g>
</g>
<g>
</g>
<g>
</g>
<g>
</g>
<g>
</g>
<g>
</g>
<g>
</g>
<g>
</g>
<g>
</g>
<g>
</g>
<g>
</g>
<g>
</g>
<g>
</g>
<g>
</g>
</svg>
